<?xml version="1.0" encoding="utf-8" standalone="no"?>
<!DOCTYPE svg PUBLIC "-//W3C//DTD SVG 1.1//EN"
  "http://www.w3.org/Graphics/SVG/1.1/DTD/svg11.dtd">
<!-- Created with matplotlib (http://matplotlib.org/) -->
<svg height="271pt" version="1.1" viewBox="0 0 390 271" width="390pt" xmlns="http://www.w3.org/2000/svg" xmlns:xlink="http://www.w3.org/1999/xlink">
 <defs>
  <style type="text/css">
*{stroke-linecap:butt;stroke-linejoin:round;}
  </style>
 </defs>
 <g id="figure_1">
  <g id="patch_1">
   <path d="
M0 271.22
L390.186 271.22
L390.186 0
L0 0
z
" style="fill:#ffffff;"/>
  </g>
  <g id="axes_1">
   <g id="patch_2">
    <path d="
M36.1422 246.342
L370.942 246.342
L370.942 23.1418
L36.1422 23.1418
z
" style="fill:#e5e5e5;"/>
   </g>
   <g id="matplotlib.axis_1">
    <g id="xtick_1">
     <g id="line2d_1">
      <path clip-path="url(#pd3e6d354eb)" d="
M66.5786 246.342
L66.5786 23.1418" style="fill:none;stroke:#ffffff;stroke-linecap:square;stroke-width:0.5;"/>
     </g>
     <g id="line2d_2">
      <defs>
       <path d="
M0 0
L0 4" id="m98e6b566c6" style="stroke:#555555;stroke-width:0.5;"/>
      </defs>
      <g>
       <use style="fill:#555555;stroke:#555555;stroke-width:0.5;" x="66.5785511364" xlink:href="#m98e6b566c6" y="246.34175"/>
      </g>
     </g>
     <g id="line2d_3">
      <defs>
       <path d="
M0 0
L0 -4" id="m4ba1eff96d" style="stroke:#555555;stroke-width:0.5;"/>
      </defs>
      <g>
       <use style="fill:#555555;stroke:#555555;stroke-width:0.5;" x="66.5785511364" xlink:href="#m4ba1eff96d" y="23.14175"/>
      </g>
     </g>
     <g id="text_1">
      <!-- 2006 -->
      <defs>
       <path d="
M33.0156 40.375
Q26.375 40.375 22.4844 35.8281
Q18.6094 31.2969 18.6094 23.3906
Q18.6094 15.5312 22.4844 10.9531
Q26.375 6.39062 33.0156 6.39062
Q39.6562 6.39062 43.5312 10.9531
Q47.4062 15.5312 47.4062 23.3906
Q47.4062 31.2969 43.5312 35.8281
Q39.6562 40.375 33.0156 40.375
M52.5938 71.2969
L52.5938 62.3125
Q48.875 64.0625 45.0938 64.9844
Q41.3125 65.9219 37.5938 65.9219
Q27.8281 65.9219 22.6719 59.3281
Q17.5312 52.7344 16.7969 39.4062
Q19.6719 43.6562 24.0156 45.9219
Q28.375 48.1875 33.5938 48.1875
Q44.5781 48.1875 50.9531 41.5156
Q57.3281 34.8594 57.3281 23.3906
Q57.3281 12.1562 50.6875 5.35938
Q44.0469 -1.42188 33.0156 -1.42188
Q20.3594 -1.42188 13.6719 8.26562
Q6.98438 17.9688 6.98438 36.375
Q6.98438 53.6562 15.1875 63.9375
Q23.3906 74.2188 37.2031 74.2188
Q40.9219 74.2188 44.7031 73.4844
Q48.4844 72.75 52.5938 71.2969" id="BitstreamVeraSans-Roman-36"/>
       <path d="
M31.7812 66.4062
Q24.1719 66.4062 20.3281 58.9062
Q16.5 51.4219 16.5 36.375
Q16.5 21.3906 20.3281 13.8906
Q24.1719 6.39062 31.7812 6.39062
Q39.4531 6.39062 43.2812 13.8906
Q47.125 21.3906 47.125 36.375
Q47.125 51.4219 43.2812 58.9062
Q39.4531 66.4062 31.7812 66.4062
M31.7812 74.2188
Q44.0469 74.2188 50.5156 64.5156
Q56.9844 54.8281 56.9844 36.375
Q56.9844 17.9688 50.5156 8.26562
Q44.0469 -1.42188 31.7812 -1.42188
Q19.5312 -1.42188 13.0625 8.26562
Q6.59375 17.9688 6.59375 36.375
Q6.59375 54.8281 13.0625 64.5156
Q19.5312 74.2188 31.7812 74.2188" id="BitstreamVeraSans-Roman-30"/>
       <path d="
M19.1875 8.29688
L53.6094 8.29688
L53.6094 0
L7.32812 0
L7.32812 8.29688
Q12.9375 14.1094 22.625 23.8906
Q32.3281 33.6875 34.8125 36.5312
Q39.5469 41.8438 41.4219 45.5312
Q43.3125 49.2188 43.3125 52.7812
Q43.3125 58.5938 39.2344 62.25
Q35.1562 65.9219 28.6094 65.9219
Q23.9688 65.9219 18.8125 64.3125
Q13.6719 62.7031 7.8125 59.4219
L7.8125 69.3906
Q13.7656 71.7812 18.9375 73
Q24.125 74.2188 28.4219 74.2188
Q39.75 74.2188 46.4844 68.5469
Q53.2188 62.8906 53.2188 53.4219
Q53.2188 48.9219 51.5312 44.8906
Q49.8594 40.875 45.4062 35.4062
Q44.1875 33.9844 37.6406 27.2188
Q31.1094 20.4531 19.1875 8.29688" id="BitstreamVeraSans-Roman-32"/>
      </defs>
      <g style="fill:#555555;" transform="translate(54.5348011364 261.9401875)scale(0.1 -0.1)">
       <use xlink:href="#BitstreamVeraSans-Roman-32"/>
       <use x="63.623046875" xlink:href="#BitstreamVeraSans-Roman-30"/>
       <use x="127.24609375" xlink:href="#BitstreamVeraSans-Roman-30"/>
       <use x="190.869140625" xlink:href="#BitstreamVeraSans-Roman-36"/>
      </g>
     </g>
    </g>
    <g id="xtick_2">
     <g id="line2d_4">
      <path clip-path="url(#pd3e6d354eb)" d="
M127.451 246.342
L127.451 23.1418" style="fill:none;stroke:#ffffff;stroke-linecap:square;stroke-width:0.5;"/>
     </g>
     <g id="line2d_5">
      <g>
       <use style="fill:#555555;stroke:#555555;stroke-width:0.5;" x="127.451278409" xlink:href="#m98e6b566c6" y="246.34175"/>
      </g>
     </g>
     <g id="line2d_6">
      <g>
       <use style="fill:#555555;stroke:#555555;stroke-width:0.5;" x="127.451278409" xlink:href="#m4ba1eff96d" y="23.14175"/>
      </g>
     </g>
     <g id="text_2">
      <!-- 2008 -->
      <defs>
       <path d="
M31.7812 34.625
Q24.75 34.625 20.7188 30.8594
Q16.7031 27.0938 16.7031 20.5156
Q16.7031 13.9219 20.7188 10.1562
Q24.75 6.39062 31.7812 6.39062
Q38.8125 6.39062 42.8594 10.1719
Q46.9219 13.9688 46.9219 20.5156
Q46.9219 27.0938 42.8906 30.8594
Q38.875 34.625 31.7812 34.625
M21.9219 38.8125
Q15.5781 40.375 12.0312 44.7188
Q8.5 49.0781 8.5 55.3281
Q8.5 64.0625 14.7188 69.1406
Q20.9531 74.2188 31.7812 74.2188
Q42.6719 74.2188 48.875 69.1406
Q55.0781 64.0625 55.0781 55.3281
Q55.0781 49.0781 51.5312 44.7188
Q48 40.375 41.7031 38.8125
Q48.8281 37.1562 52.7969 32.3125
Q56.7812 27.4844 56.7812 20.5156
Q56.7812 9.90625 50.3125 4.23438
Q43.8438 -1.42188 31.7812 -1.42188
Q19.7344 -1.42188 13.25 4.23438
Q6.78125 9.90625 6.78125 20.5156
Q6.78125 27.4844 10.7812 32.3125
Q14.7969 37.1562 21.9219 38.8125
M18.3125 54.3906
Q18.3125 48.7344 21.8438 45.5625
Q25.3906 42.3906 31.7812 42.3906
Q38.1406 42.3906 41.7188 45.5625
Q45.3125 48.7344 45.3125 54.3906
Q45.3125 60.0625 41.7188 63.2344
Q38.1406 66.4062 31.7812 66.4062
Q25.3906 66.4062 21.8438 63.2344
Q18.3125 60.0625 18.3125 54.3906" id="BitstreamVeraSans-Roman-38"/>
      </defs>
      <g style="fill:#555555;" transform="translate(115.434872159 261.9401875)scale(0.1 -0.1)">
       <use xlink:href="#BitstreamVeraSans-Roman-32"/>
       <use x="63.623046875" xlink:href="#BitstreamVeraSans-Roman-30"/>
       <use x="127.24609375" xlink:href="#BitstreamVeraSans-Roman-30"/>
       <use x="190.869140625" xlink:href="#BitstreamVeraSans-Roman-38"/>
      </g>
     </g>
    </g>
    <g id="xtick_3">
     <g id="line2d_7">
      <path clip-path="url(#pd3e6d354eb)" d="
M188.324 246.342
L188.324 23.1418" style="fill:none;stroke:#ffffff;stroke-linecap:square;stroke-width:0.5;"/>
     </g>
     <g id="line2d_8">
      <g>
       <use style="fill:#555555;stroke:#555555;stroke-width:0.5;" x="188.324005682" xlink:href="#m98e6b566c6" y="246.34175"/>
      </g>
     </g>
     <g id="line2d_9">
      <g>
       <use style="fill:#555555;stroke:#555555;stroke-width:0.5;" x="188.324005682" xlink:href="#m4ba1eff96d" y="23.14175"/>
      </g>
     </g>
     <g id="text_3">
      <!-- 2010 -->
      <defs>
       <path d="
M12.4062 8.29688
L28.5156 8.29688
L28.5156 63.9219
L10.9844 60.4062
L10.9844 69.3906
L28.4219 72.9062
L38.2812 72.9062
L38.2812 8.29688
L54.3906 8.29688
L54.3906 0
L12.4062 0
z
" id="BitstreamVeraSans-Roman-31"/>
      </defs>
      <g style="fill:#555555;" transform="translate(176.297443182 261.9401875)scale(0.1 -0.1)">
       <use xlink:href="#BitstreamVeraSans-Roman-32"/>
       <use x="63.623046875" xlink:href="#BitstreamVeraSans-Roman-30"/>
       <use x="127.24609375" xlink:href="#BitstreamVeraSans-Roman-31"/>
       <use x="190.869140625" xlink:href="#BitstreamVeraSans-Roman-30"/>
      </g>
     </g>
    </g>
    <g id="xtick_4">
     <g id="line2d_10">
      <path clip-path="url(#pd3e6d354eb)" d="
M249.197 246.342
L249.197 23.1418" style="fill:none;stroke:#ffffff;stroke-linecap:square;stroke-width:0.5;"/>
     </g>
     <g id="line2d_11">
      <g>
       <use style="fill:#555555;stroke:#555555;stroke-width:0.5;" x="249.196732955" xlink:href="#m98e6b566c6" y="246.34175"/>
      </g>
     </g>
     <g id="line2d_12">
      <g>
       <use style="fill:#555555;stroke:#555555;stroke-width:0.5;" x="249.196732955" xlink:href="#m4ba1eff96d" y="23.14175"/>
      </g>
     </g>
     <g id="text_4">
      <!-- 2012 -->
      <g style="fill:#555555;" transform="translate(237.338920455 261.9401875)scale(0.1 -0.1)">
       <use xlink:href="#BitstreamVeraSans-Roman-32"/>
       <use x="63.623046875" xlink:href="#BitstreamVeraSans-Roman-30"/>
       <use x="127.24609375" xlink:href="#BitstreamVeraSans-Roman-31"/>
       <use x="190.869140625" xlink:href="#BitstreamVeraSans-Roman-32"/>
      </g>
     </g>
    </g>
    <g id="xtick_5">
     <g id="line2d_13">
      <path clip-path="url(#pd3e6d354eb)" d="
M310.069 246.342
L310.069 23.1418" style="fill:none;stroke:#ffffff;stroke-linecap:square;stroke-width:0.5;"/>
     </g>
     <g id="line2d_14">
      <g>
       <use style="fill:#555555;stroke:#555555;stroke-width:0.5;" x="310.069460227" xlink:href="#m98e6b566c6" y="246.34175"/>
      </g>
     </g>
     <g id="line2d_15">
      <g>
       <use style="fill:#555555;stroke:#555555;stroke-width:0.5;" x="310.069460227" xlink:href="#m4ba1eff96d" y="23.14175"/>
      </g>
     </g>
     <g id="text_5">
      <!-- 2014 -->
      <defs>
       <path d="
M37.7969 64.3125
L12.8906 25.3906
L37.7969 25.3906
z

M35.2031 72.9062
L47.6094 72.9062
L47.6094 25.3906
L58.0156 25.3906
L58.0156 17.1875
L47.6094 17.1875
L47.6094 0
L37.7969 0
L37.7969 17.1875
L4.89062 17.1875
L4.89062 26.7031
z
" id="BitstreamVeraSans-Roman-34"/>
      </defs>
      <g style="fill:#555555;" transform="translate(297.991335227 261.9401875)scale(0.1 -0.1)">
       <use xlink:href="#BitstreamVeraSans-Roman-32"/>
       <use x="63.623046875" xlink:href="#BitstreamVeraSans-Roman-30"/>
       <use x="127.24609375" xlink:href="#BitstreamVeraSans-Roman-31"/>
       <use x="190.869140625" xlink:href="#BitstreamVeraSans-Roman-34"/>
      </g>
     </g>
    </g>
    <g id="xtick_6">
     <g id="line2d_16">
      <path clip-path="url(#pd3e6d354eb)" d="
M370.942 246.342
L370.942 23.1418" style="fill:none;stroke:#ffffff;stroke-linecap:square;stroke-width:0.5;"/>
     </g>
     <g id="line2d_17">
      <g>
       <use style="fill:#555555;stroke:#555555;stroke-width:0.5;" x="370.9421875" xlink:href="#m98e6b566c6" y="246.34175"/>
      </g>
     </g>
     <g id="line2d_18">
      <g>
       <use style="fill:#555555;stroke:#555555;stroke-width:0.5;" x="370.9421875" xlink:href="#m4ba1eff96d" y="23.14175"/>
      </g>
     </g>
     <g id="text_6">
      <!-- 2016 -->
      <g style="fill:#555555;" transform="translate(358.8984375 261.9401875)scale(0.1 -0.1)">
       <use xlink:href="#BitstreamVeraSans-Roman-32"/>
       <use x="63.623046875" xlink:href="#BitstreamVeraSans-Roman-30"/>
       <use x="127.24609375" xlink:href="#BitstreamVeraSans-Roman-31"/>
       <use x="190.869140625" xlink:href="#BitstreamVeraSans-Roman-36"/>
      </g>
     </g>
    </g>
   </g>
   <g id="matplotlib.axis_2">
    <g id="ytick_1">
     <g id="line2d_19">
      <path clip-path="url(#pd3e6d354eb)" d="
M36.1422 246.342
L370.942 246.342" style="fill:none;stroke:#ffffff;stroke-linecap:square;stroke-width:0.5;"/>
     </g>
     <g id="line2d_20">
      <defs>
       <path d="
M0 0
L-4 0" id="m5191f13a99" style="stroke:#555555;stroke-width:0.5;"/>
      </defs>
      <g>
       <use style="fill:#555555;stroke:#555555;stroke-width:0.5;" x="36.1421875" xlink:href="#m5191f13a99" y="246.34175"/>
      </g>
     </g>
     <g id="line2d_21">
      <defs>
       <path d="
M0 0
L4 0" id="mdd7d7fa58b" style="stroke:#555555;stroke-width:0.5;"/>
      </defs>
      <g>
       <use style="fill:#555555;stroke:#555555;stroke-width:0.5;" x="370.9421875" xlink:href="#mdd7d7fa58b" y="246.34175"/>
      </g>
     </g>
     <g id="text_7">
      <!-- 0.55 -->
      <defs>
       <path d="
M10.6875 12.4062
L21 12.4062
L21 0
L10.6875 0
z
" id="BitstreamVeraSans-Roman-2e"/>
       <path d="
M10.7969 72.9062
L49.5156 72.9062
L49.5156 64.5938
L19.8281 64.5938
L19.8281 46.7344
Q21.9688 47.4688 24.1094 47.8281
Q26.2656 48.1875 28.4219 48.1875
Q40.625 48.1875 47.75 41.5
Q54.8906 34.8125 54.8906 23.3906
Q54.8906 11.625 47.5625 5.09375
Q40.2344 -1.42188 26.9062 -1.42188
Q22.3125 -1.42188 17.5469 -0.640625
Q12.7969 0.140625 7.71875 1.70312
L7.71875 11.625
Q12.1094 9.23438 16.7969 8.0625
Q21.4844 6.89062 26.7031 6.89062
Q35.1562 6.89062 40.0781 11.3281
Q45.0156 15.7656 45.0156 23.3906
Q45.0156 31 40.0781 35.4375
Q35.1562 39.8906 26.7031 39.8906
Q22.75 39.8906 18.8125 39.0156
Q14.8906 38.1406 10.7969 36.2812
z
" id="BitstreamVeraSans-Roman-35"/>
      </defs>
      <g style="fill:#555555;" transform="translate(7.409375 249.101125)scale(0.1 -0.1)">
       <use xlink:href="#BitstreamVeraSans-Roman-30"/>
       <use x="63.623046875" xlink:href="#BitstreamVeraSans-Roman-2e"/>
       <use x="95.41015625" xlink:href="#BitstreamVeraSans-Roman-35"/>
       <use x="159.033203125" xlink:href="#BitstreamVeraSans-Roman-35"/>
      </g>
     </g>
    </g>
    <g id="ytick_2">
     <g id="line2d_22">
      <path clip-path="url(#pd3e6d354eb)" d="
M36.1422 218.442
L370.942 218.442" style="fill:none;stroke:#ffffff;stroke-linecap:square;stroke-width:0.5;"/>
     </g>
     <g id="line2d_23">
      <g>
       <use style="fill:#555555;stroke:#555555;stroke-width:0.5;" x="36.1421875" xlink:href="#m5191f13a99" y="218.44175"/>
      </g>
     </g>
     <g id="line2d_24">
      <g>
       <use style="fill:#555555;stroke:#555555;stroke-width:0.5;" x="370.9421875" xlink:href="#mdd7d7fa58b" y="218.44175"/>
      </g>
     </g>
     <g id="text_8">
      <!-- 0.60 -->
      <g style="fill:#555555;" transform="translate(7.2 221.201125)scale(0.1 -0.1)">
       <use xlink:href="#BitstreamVeraSans-Roman-30"/>
       <use x="63.623046875" xlink:href="#BitstreamVeraSans-Roman-2e"/>
       <use x="95.41015625" xlink:href="#BitstreamVeraSans-Roman-36"/>
       <use x="159.033203125" xlink:href="#BitstreamVeraSans-Roman-30"/>
      </g>
     </g>
    </g>
    <g id="ytick_3">
     <g id="line2d_25">
      <path clip-path="url(#pd3e6d354eb)" d="
M36.1422 190.542
L370.942 190.542" style="fill:none;stroke:#ffffff;stroke-linecap:square;stroke-width:0.5;"/>
     </g>
     <g id="line2d_26">
      <g>
       <use style="fill:#555555;stroke:#555555;stroke-width:0.5;" x="36.1421875" xlink:href="#m5191f13a99" y="190.54175"/>
      </g>
     </g>
     <g id="line2d_27">
      <g>
       <use style="fill:#555555;stroke:#555555;stroke-width:0.5;" x="370.9421875" xlink:href="#mdd7d7fa58b" y="190.54175"/>
      </g>
     </g>
     <g id="text_9">
      <!-- 0.65 -->
      <g style="fill:#555555;" transform="translate(7.409375 193.301125)scale(0.1 -0.1)">
       <use xlink:href="#BitstreamVeraSans-Roman-30"/>
       <use x="63.623046875" xlink:href="#BitstreamVeraSans-Roman-2e"/>
       <use x="95.41015625" xlink:href="#BitstreamVeraSans-Roman-36"/>
       <use x="159.033203125" xlink:href="#BitstreamVeraSans-Roman-35"/>
      </g>
     </g>
    </g>
    <g id="ytick_4">
     <g id="line2d_28">
      <path clip-path="url(#pd3e6d354eb)" d="
M36.1422 162.642
L370.942 162.642" style="fill:none;stroke:#ffffff;stroke-linecap:square;stroke-width:0.5;"/>
     </g>
     <g id="line2d_29">
      <g>
       <use style="fill:#555555;stroke:#555555;stroke-width:0.5;" x="36.1421875" xlink:href="#m5191f13a99" y="162.64175"/>
      </g>
     </g>
     <g id="line2d_30">
      <g>
       <use style="fill:#555555;stroke:#555555;stroke-width:0.5;" x="370.9421875" xlink:href="#mdd7d7fa58b" y="162.64175"/>
      </g>
     </g>
     <g id="text_10">
      <!-- 0.70 -->
      <defs>
       <path d="
M8.20312 72.9062
L55.0781 72.9062
L55.0781 68.7031
L28.6094 0
L18.3125 0
L43.2188 64.5938
L8.20312 64.5938
z
" id="BitstreamVeraSans-Roman-37"/>
      </defs>
      <g style="fill:#555555;" transform="translate(7.2 165.401125)scale(0.1 -0.1)">
       <use xlink:href="#BitstreamVeraSans-Roman-30"/>
       <use x="63.623046875" xlink:href="#BitstreamVeraSans-Roman-2e"/>
       <use x="95.41015625" xlink:href="#BitstreamVeraSans-Roman-37"/>
       <use x="159.033203125" xlink:href="#BitstreamVeraSans-Roman-30"/>
      </g>
     </g>
    </g>
    <g id="ytick_5">
     <g id="line2d_31">
      <path clip-path="url(#pd3e6d354eb)" d="
M36.1422 134.742
L370.942 134.742" style="fill:none;stroke:#ffffff;stroke-linecap:square;stroke-width:0.5;"/>
     </g>
     <g id="line2d_32">
      <g>
       <use style="fill:#555555;stroke:#555555;stroke-width:0.5;" x="36.1421875" xlink:href="#m5191f13a99" y="134.74175"/>
      </g>
     </g>
     <g id="line2d_33">
      <g>
       <use style="fill:#555555;stroke:#555555;stroke-width:0.5;" x="370.9421875" xlink:href="#mdd7d7fa58b" y="134.74175"/>
      </g>
     </g>
     <g id="text_11">
      <!-- 0.75 -->
      <g style="fill:#555555;" transform="translate(7.409375 137.501125)scale(0.1 -0.1)">
       <use xlink:href="#BitstreamVeraSans-Roman-30"/>
       <use x="63.623046875" xlink:href="#BitstreamVeraSans-Roman-2e"/>
       <use x="95.41015625" xlink:href="#BitstreamVeraSans-Roman-37"/>
       <use x="159.033203125" xlink:href="#BitstreamVeraSans-Roman-35"/>
      </g>
     </g>
    </g>
    <g id="ytick_6">
     <g id="line2d_34">
      <path clip-path="url(#pd3e6d354eb)" d="
M36.1422 106.842
L370.942 106.842" style="fill:none;stroke:#ffffff;stroke-linecap:square;stroke-width:0.5;"/>
     </g>
     <g id="line2d_35">
      <g>
       <use style="fill:#555555;stroke:#555555;stroke-width:0.5;" x="36.1421875" xlink:href="#m5191f13a99" y="106.84175"/>
      </g>
     </g>
     <g id="line2d_36">
      <g>
       <use style="fill:#555555;stroke:#555555;stroke-width:0.5;" x="370.9421875" xlink:href="#mdd7d7fa58b" y="106.84175"/>
      </g>
     </g>
     <g id="text_12">
      <!-- 0.80 -->
      <g style="fill:#555555;" transform="translate(7.2 109.601125)scale(0.1 -0.1)">
       <use xlink:href="#BitstreamVeraSans-Roman-30"/>
       <use x="63.623046875" xlink:href="#BitstreamVeraSans-Roman-2e"/>
       <use x="95.41015625" xlink:href="#BitstreamVeraSans-Roman-38"/>
       <use x="159.033203125" xlink:href="#BitstreamVeraSans-Roman-30"/>
      </g>
     </g>
    </g>
    <g id="ytick_7">
     <g id="line2d_37">
      <path clip-path="url(#pd3e6d354eb)" d="
M36.1422 78.9417
L370.942 78.9417" style="fill:none;stroke:#ffffff;stroke-linecap:square;stroke-width:0.5;"/>
     </g>
     <g id="line2d_38">
      <g>
       <use style="fill:#555555;stroke:#555555;stroke-width:0.5;" x="36.1421875" xlink:href="#m5191f13a99" y="78.94175"/>
      </g>
     </g>
     <g id="line2d_39">
      <g>
       <use style="fill:#555555;stroke:#555555;stroke-width:0.5;" x="370.9421875" xlink:href="#mdd7d7fa58b" y="78.94175"/>
      </g>
     </g>
     <g id="text_13">
      <!-- 0.85 -->
      <g style="fill:#555555;" transform="translate(7.409375 81.701125)scale(0.1 -0.1)">
       <use xlink:href="#BitstreamVeraSans-Roman-30"/>
       <use x="63.623046875" xlink:href="#BitstreamVeraSans-Roman-2e"/>
       <use x="95.41015625" xlink:href="#BitstreamVeraSans-Roman-38"/>
       <use x="159.033203125" xlink:href="#BitstreamVeraSans-Roman-35"/>
      </g>
     </g>
    </g>
    <g id="ytick_8">
     <g id="line2d_40">
      <path clip-path="url(#pd3e6d354eb)" d="
M36.1422 51.0417
L370.942 51.0417" style="fill:none;stroke:#ffffff;stroke-linecap:square;stroke-width:0.5;"/>
     </g>
     <g id="line2d_41">
      <g>
       <use style="fill:#555555;stroke:#555555;stroke-width:0.5;" x="36.1421875" xlink:href="#m5191f13a99" y="51.04175"/>
      </g>
     </g>
     <g id="line2d_42">
      <g>
       <use style="fill:#555555;stroke:#555555;stroke-width:0.5;" x="370.9421875" xlink:href="#mdd7d7fa58b" y="51.04175"/>
      </g>
     </g>
     <g id="text_14">
      <!-- 0.90 -->
      <defs>
       <path d="
M10.9844 1.51562
L10.9844 10.5
Q14.7031 8.73438 18.5 7.8125
Q22.3125 6.89062 25.9844 6.89062
Q35.75 6.89062 40.8906 13.4531
Q46.0469 20.0156 46.7812 33.4062
Q43.9531 29.2031 39.5938 26.9531
Q35.25 24.7031 29.9844 24.7031
Q19.0469 24.7031 12.6719 31.3125
Q6.29688 37.9375 6.29688 49.4219
Q6.29688 60.6406 12.9375 67.4219
Q19.5781 74.2188 30.6094 74.2188
Q43.2656 74.2188 49.9219 64.5156
Q56.5938 54.8281 56.5938 36.375
Q56.5938 19.1406 48.4062 8.85938
Q40.2344 -1.42188 26.4219 -1.42188
Q22.7031 -1.42188 18.8906 -0.6875
Q15.0938 0.046875 10.9844 1.51562
M30.6094 32.4219
Q37.25 32.4219 41.125 36.9531
Q45.0156 41.5 45.0156 49.4219
Q45.0156 57.2812 41.125 61.8438
Q37.25 66.4062 30.6094 66.4062
Q23.9688 66.4062 20.0938 61.8438
Q16.2188 57.2812 16.2188 49.4219
Q16.2188 41.5 20.0938 36.9531
Q23.9688 32.4219 30.6094 32.4219" id="BitstreamVeraSans-Roman-39"/>
      </defs>
      <g style="fill:#555555;" transform="translate(7.2 53.801125)scale(0.1 -0.1)">
       <use xlink:href="#BitstreamVeraSans-Roman-30"/>
       <use x="63.623046875" xlink:href="#BitstreamVeraSans-Roman-2e"/>
       <use x="95.41015625" xlink:href="#BitstreamVeraSans-Roman-39"/>
       <use x="159.033203125" xlink:href="#BitstreamVeraSans-Roman-30"/>
      </g>
     </g>
    </g>
    <g id="ytick_9">
     <g id="line2d_43">
      <path clip-path="url(#pd3e6d354eb)" d="
M36.1422 23.1417
L370.942 23.1417" style="fill:none;stroke:#ffffff;stroke-linecap:square;stroke-width:0.5;"/>
     </g>
     <g id="line2d_44">
      <g>
       <use style="fill:#555555;stroke:#555555;stroke-width:0.5;" x="36.1421875" xlink:href="#m5191f13a99" y="23.14175"/>
      </g>
     </g>
     <g id="line2d_45">
      <g>
       <use style="fill:#555555;stroke:#555555;stroke-width:0.5;" x="370.9421875" xlink:href="#mdd7d7fa58b" y="23.14175"/>
      </g>
     </g>
     <g id="text_15">
      <!-- 0.95 -->
      <g style="fill:#555555;" transform="translate(7.409375 25.901125)scale(0.1 -0.1)">
       <use xlink:href="#BitstreamVeraSans-Roman-30"/>
       <use x="63.623046875" xlink:href="#BitstreamVeraSans-Roman-2e"/>
       <use x="95.41015625" xlink:href="#BitstreamVeraSans-Roman-39"/>
       <use x="159.033203125" xlink:href="#BitstreamVeraSans-Roman-35"/>
      </g>
     </g>
    </g>
   </g>
   <g id="line2d_46">
    <path clip-path="url(#pd3e6d354eb)" d="
M36.1422 45.3991
L66.5786 128.569
L97.0149 148.82
L127.451 127.508
L157.888 203.562
L188.324 168.842
L218.76 189.893
L249.197 170.037
L279.633 208.595
L310.069 176.473
L340.506 192.867
L370.942 197.654" style="fill:none;stroke:#e24a33;stroke-linecap:square;"/>
   </g>
   <g id="line2d_47">
    <path clip-path="url(#pd3e6d354eb)" d="
M36.1422 74.956
L66.5786 157.992
L97.0149 176.347
L127.451 145.152
L157.888 153.342
L188.324 173.976
L218.76 149.512
L249.197 174.453
L279.633 185.469
L310.069 168.99
L340.506 157.131
L370.942 155.667" style="fill:none;stroke:#348abd;stroke-linecap:square;"/>
   </g>
   <g id="line2d_48">
    <path clip-path="url(#pd3e6d354eb)" d="
M36.1422 120.311
L66.5786 194.527
L97.0149 238.136
L127.451 233.489
L157.888 233.611
L188.324 152.035
L218.76 202.242
L249.197 187.494
L279.633 229.956
L310.069 202.87
L340.506 186.794
L370.942 188.901" style="fill:none;stroke:#988ed5;stroke-linecap:square;"/>
   </g>
   <g id="patch_3">
    <path d="
M370.942 246.342
L370.942 23.1417" style="fill:none;stroke:#ffffff;stroke-linecap:square;stroke-linejoin:miter;"/>
   </g>
   <g id="patch_4">
    <path d="
M36.1422 23.1418
L370.942 23.1418" style="fill:none;stroke:#ffffff;stroke-linecap:square;stroke-linejoin:miter;"/>
   </g>
   <g id="patch_5">
    <path d="
M36.1422 246.342
L36.1422 23.1417" style="fill:none;stroke:#ffffff;stroke-linecap:square;stroke-linejoin:miter;"/>
   </g>
   <g id="patch_6">
    <path d="
M36.1422 246.342
L370.942 246.342" style="fill:none;stroke:#ffffff;stroke-linecap:square;stroke-linejoin:miter;"/>
   </g>
   <g id="text_16">
    <!-- Unique Percentage among Big Three -->
    <defs>
     <path d="
M56.2031 29.5938
L56.2031 25.2031
L14.8906 25.2031
Q15.4844 15.9219 20.4844 11.0625
Q25.4844 6.20312 34.4219 6.20312
Q39.5938 6.20312 44.4531 7.46875
Q49.3125 8.73438 54.1094 11.2812
L54.1094 2.78125
Q49.2656 0.734375 44.1875 -0.34375
Q39.1094 -1.42188 33.8906 -1.42188
Q20.7969 -1.42188 13.1562 6.1875
Q5.51562 13.8125 5.51562 26.8125
Q5.51562 40.2344 12.7656 48.1094
Q20.0156 56 32.3281 56
Q43.3594 56 49.7812 48.8906
Q56.2031 41.7969 56.2031 29.5938
M47.2188 32.2344
Q47.125 39.5938 43.0938 43.9844
Q39.0625 48.3906 32.4219 48.3906
Q24.9062 48.3906 20.3906 44.1406
Q15.875 39.8906 15.1875 32.1719
z
" id="BitstreamVeraSans-Roman-65"/>
     <path d="
M19.6719 64.7969
L19.6719 37.4062
L32.0781 37.4062
Q38.9688 37.4062 42.7188 40.9688
Q46.4844 44.5312 46.4844 51.125
Q46.4844 57.6719 42.7188 61.2344
Q38.9688 64.7969 32.0781 64.7969
z

M9.8125 72.9062
L32.0781 72.9062
Q44.3438 72.9062 50.6094 67.3594
Q56.8906 61.8125 56.8906 51.125
Q56.8906 40.3281 50.6094 34.8125
Q44.3438 29.2969 32.0781 29.2969
L19.6719 29.2969
L19.6719 0
L9.8125 0
z
" id="BitstreamVeraSans-Roman-50"/>
     <path d="
M19.6719 34.8125
L19.6719 8.10938
L35.5 8.10938
Q43.4531 8.10938 47.2812 11.4062
Q51.125 14.7031 51.125 21.4844
Q51.125 28.3281 47.2812 31.5625
Q43.4531 34.8125 35.5 34.8125
z

M19.6719 64.7969
L19.6719 42.8281
L34.2812 42.8281
Q41.5 42.8281 45.0312 45.5312
Q48.5781 48.25 48.5781 53.8125
Q48.5781 59.3281 45.0312 62.0625
Q41.5 64.7969 34.2812 64.7969
z

M9.8125 72.9062
L35.0156 72.9062
Q46.2969 72.9062 52.3906 68.2188
Q58.5 63.5312 58.5 54.8906
Q58.5 48.1875 55.375 44.2344
Q52.25 40.2812 46.1875 39.3125
Q53.4688 37.75 57.5 32.7812
Q61.5312 27.8281 61.5312 20.4062
Q61.5312 10.6406 54.8906 5.3125
Q48.25 0 35.9844 0
L9.8125 0
z
" id="BitstreamVeraSans-Roman-42"/>
     <path id="BitstreamVeraSans-Roman-20"/>
     <path d="
M8.5 21.5781
L8.5 54.6875
L17.4844 54.6875
L17.4844 21.9219
Q17.4844 14.1562 20.5 10.2656
Q23.5312 6.39062 29.5938 6.39062
Q36.8594 6.39062 41.0781 11.0312
Q45.3125 15.6719 45.3125 23.6875
L45.3125 54.6875
L54.2969 54.6875
L54.2969 0
L45.3125 0
L45.3125 8.40625
Q42.0469 3.42188 37.7188 1
Q33.4062 -1.42188 27.6875 -1.42188
Q18.2656 -1.42188 13.375 4.4375
Q8.5 10.2969 8.5 21.5781" id="BitstreamVeraSans-Roman-75"/>
     <path d="
M52 44.1875
Q55.375 50.25 60.0625 53.125
Q64.75 56 71.0938 56
Q79.6406 56 84.2812 50.0156
Q88.9219 44.0469 88.9219 33.0156
L88.9219 0
L79.8906 0
L79.8906 32.7188
Q79.8906 40.5781 77.0938 44.375
Q74.3125 48.1875 68.6094 48.1875
Q61.625 48.1875 57.5625 43.5469
Q53.5156 38.9219 53.5156 30.9062
L53.5156 0
L44.4844 0
L44.4844 32.7188
Q44.4844 40.625 41.7031 44.4062
Q38.9219 48.1875 33.1094 48.1875
Q26.2188 48.1875 22.1562 43.5312
Q18.1094 38.875 18.1094 30.9062
L18.1094 0
L9.07812 0
L9.07812 54.6875
L18.1094 54.6875
L18.1094 46.1875
Q21.1875 51.2188 25.4844 53.6094
Q29.7812 56 35.6875 56
Q41.6562 56 45.8281 52.9688
Q50 49.9531 52 44.1875" id="BitstreamVeraSans-Roman-6d"/>
     <path d="
M8.6875 72.9062
L18.6094 72.9062
L18.6094 28.6094
Q18.6094 16.8906 22.8438 11.7344
Q27.0938 6.59375 36.625 6.59375
Q46.0938 6.59375 50.3438 11.7344
Q54.5938 16.8906 54.5938 28.6094
L54.5938 72.9062
L64.5 72.9062
L64.5 27.3906
Q64.5 13.1406 57.4375 5.85938
Q50.3906 -1.42188 36.625 -1.42188
Q22.7969 -1.42188 15.7344 5.85938
Q8.6875 13.1406 8.6875 27.3906
z
" id="BitstreamVeraSans-Roman-55"/>
     <path d="
M54.8906 33.0156
L54.8906 0
L45.9062 0
L45.9062 32.7188
Q45.9062 40.4844 42.875 44.3281
Q39.8438 48.1875 33.7969 48.1875
Q26.5156 48.1875 22.3125 43.5469
Q18.1094 38.9219 18.1094 30.9062
L18.1094 0
L9.07812 0
L9.07812 75.9844
L18.1094 75.9844
L18.1094 46.1875
Q21.3438 51.125 25.7031 53.5625
Q30.0781 56 35.7969 56
Q45.2188 56 50.0469 50.1719
Q54.8906 44.3438 54.8906 33.0156" id="BitstreamVeraSans-Roman-68"/>
     <path d="
M54.8906 33.0156
L54.8906 0
L45.9062 0
L45.9062 32.7188
Q45.9062 40.4844 42.875 44.3281
Q39.8438 48.1875 33.7969 48.1875
Q26.5156 48.1875 22.3125 43.5469
Q18.1094 38.9219 18.1094 30.9062
L18.1094 0
L9.07812 0
L9.07812 54.6875
L18.1094 54.6875
L18.1094 46.1875
Q21.3438 51.125 25.7031 53.5625
Q30.0781 56 35.7969 56
Q45.2188 56 50.0469 50.1719
Q54.8906 44.3438 54.8906 33.0156" id="BitstreamVeraSans-Roman-6e"/>
     <path d="
M14.7969 27.2969
Q14.7969 17.3906 18.875 11.75
Q22.9531 6.10938 30.0781 6.10938
Q37.2031 6.10938 41.2969 11.75
Q45.4062 17.3906 45.4062 27.2969
Q45.4062 37.2031 41.2969 42.8438
Q37.2031 48.4844 30.0781 48.4844
Q22.9531 48.4844 18.875 42.8438
Q14.7969 37.2031 14.7969 27.2969
M45.4062 8.20312
Q42.5781 3.32812 38.25 0.953125
Q33.9375 -1.42188 27.875 -1.42188
Q17.9688 -1.42188 11.7344 6.48438
Q5.51562 14.4062 5.51562 27.2969
Q5.51562 40.1875 11.7344 48.0938
Q17.9688 56 27.875 56
Q33.9375 56 38.25 53.625
Q42.5781 51.2656 45.4062 46.3906
L45.4062 54.6875
L54.3906 54.6875
L54.3906 -20.7969
L45.4062 -20.7969
z
" id="BitstreamVeraSans-Roman-71"/>
     <path d="
M41.1094 46.2969
Q39.5938 47.1719 37.8125 47.5781
Q36.0312 48 33.8906 48
Q26.2656 48 22.1875 43.0469
Q18.1094 38.0938 18.1094 28.8125
L18.1094 0
L9.07812 0
L9.07812 54.6875
L18.1094 54.6875
L18.1094 46.1875
Q20.9531 51.1719 25.4844 53.5781
Q30.0312 56 36.5312 56
Q37.4531 56 38.5781 55.875
Q39.7031 55.7656 41.0625 55.5156
z
" id="BitstreamVeraSans-Roman-72"/>
     <path d="
M9.42188 54.6875
L18.4062 54.6875
L18.4062 0
L9.42188 0
z

M9.42188 75.9844
L18.4062 75.9844
L18.4062 64.5938
L9.42188 64.5938
z
" id="BitstreamVeraSans-Roman-69"/>
     <path d="
M18.3125 70.2188
L18.3125 54.6875
L36.8125 54.6875
L36.8125 47.7031
L18.3125 47.7031
L18.3125 18.0156
Q18.3125 11.3281 20.1406 9.42188
Q21.9688 7.51562 27.5938 7.51562
L36.8125 7.51562
L36.8125 0
L27.5938 0
Q17.1875 0 13.2344 3.875
Q9.28125 7.76562 9.28125 18.0156
L9.28125 47.7031
L2.6875 47.7031
L2.6875 54.6875
L9.28125 54.6875
L9.28125 70.2188
z
" id="BitstreamVeraSans-Roman-74"/>
     <path d="
M34.2812 27.4844
Q23.3906 27.4844 19.1875 25
Q14.9844 22.5156 14.9844 16.5
Q14.9844 11.7188 18.1406 8.90625
Q21.2969 6.10938 26.7031 6.10938
Q34.1875 6.10938 38.7031 11.4062
Q43.2188 16.7031 43.2188 25.4844
L43.2188 27.4844
z

M52.2031 31.2031
L52.2031 0
L43.2188 0
L43.2188 8.29688
Q40.1406 3.32812 35.5469 0.953125
Q30.9531 -1.42188 24.3125 -1.42188
Q15.9219 -1.42188 10.9531 3.29688
Q6 8.01562 6 15.9219
Q6 25.1406 12.1719 29.8281
Q18.3594 34.5156 30.6094 34.5156
L43.2188 34.5156
L43.2188 35.4062
Q43.2188 41.6094 39.1406 45
Q35.0625 48.3906 27.6875 48.3906
Q23 48.3906 18.5469 47.2656
Q14.1094 46.1406 10.0156 43.8906
L10.0156 52.2031
Q14.9375 54.1094 19.5781 55.0469
Q24.2188 56 28.6094 56
Q40.4844 56 46.3438 49.8438
Q52.2031 43.7031 52.2031 31.2031" id="BitstreamVeraSans-Roman-61"/>
     <path d="
M-0.296875 72.9062
L61.375 72.9062
L61.375 64.5938
L35.5 64.5938
L35.5 0
L25.5938 0
L25.5938 64.5938
L-0.296875 64.5938
z
" id="BitstreamVeraSans-Roman-54"/>
     <path d="
M48.7812 52.5938
L48.7812 44.1875
Q44.9688 46.2969 41.1406 47.3438
Q37.3125 48.3906 33.4062 48.3906
Q24.6562 48.3906 19.8125 42.8438
Q14.9844 37.3125 14.9844 27.2969
Q14.9844 17.2812 19.8125 11.7344
Q24.6562 6.20312 33.4062 6.20312
Q37.3125 6.20312 41.1406 7.25
Q44.9688 8.29688 48.7812 10.4062
L48.7812 2.09375
Q45.0156 0.34375 40.9844 -0.53125
Q36.9688 -1.42188 32.4219 -1.42188
Q20.0625 -1.42188 12.7812 6.34375
Q5.51562 14.1094 5.51562 27.2969
Q5.51562 40.6719 12.8594 48.3281
Q20.2188 56 33.0156 56
Q37.1562 56 41.1094 55.1406
Q45.0625 54.2969 48.7812 52.5938" id="BitstreamVeraSans-Roman-63"/>
     <path d="
M45.4062 27.9844
Q45.4062 37.75 41.375 43.1094
Q37.3594 48.4844 30.0781 48.4844
Q22.8594 48.4844 18.8281 43.1094
Q14.7969 37.75 14.7969 27.9844
Q14.7969 18.2656 18.8281 12.8906
Q22.8594 7.51562 30.0781 7.51562
Q37.3594 7.51562 41.375 12.8906
Q45.4062 18.2656 45.4062 27.9844
M54.3906 6.78125
Q54.3906 -7.17188 48.1875 -13.9844
Q42 -20.7969 29.2031 -20.7969
Q24.4688 -20.7969 20.2656 -20.0938
Q16.0625 -19.3906 12.1094 -17.9219
L12.1094 -9.1875
Q16.0625 -11.3281 19.9219 -12.3438
Q23.7812 -13.375 27.7812 -13.375
Q36.625 -13.375 41.0156 -8.76562
Q45.4062 -4.15625 45.4062 5.17188
L45.4062 9.625
Q42.625 4.78125 38.2812 2.39062
Q33.9375 0 27.875 0
Q17.8281 0 11.6719 7.65625
Q5.51562 15.3281 5.51562 27.9844
Q5.51562 40.6719 11.6719 48.3281
Q17.8281 56 27.875 56
Q33.9375 56 38.2812 53.6094
Q42.625 51.2188 45.4062 46.3906
L45.4062 54.6875
L54.3906 54.6875
z
" id="BitstreamVeraSans-Roman-67"/>
     <path d="
M30.6094 48.3906
Q23.3906 48.3906 19.1875 42.75
Q14.9844 37.1094 14.9844 27.2969
Q14.9844 17.4844 19.1562 11.8438
Q23.3438 6.20312 30.6094 6.20312
Q37.7969 6.20312 41.9844 11.8594
Q46.1875 17.5312 46.1875 27.2969
Q46.1875 37.0156 41.9844 42.7031
Q37.7969 48.3906 30.6094 48.3906
M30.6094 56
Q42.3281 56 49.0156 48.375
Q55.7188 40.7656 55.7188 27.2969
Q55.7188 13.875 49.0156 6.21875
Q42.3281 -1.42188 30.6094 -1.42188
Q18.8438 -1.42188 12.1719 6.21875
Q5.51562 13.875 5.51562 27.2969
Q5.51562 40.7656 12.1719 48.375
Q18.8438 56 30.6094 56" id="BitstreamVeraSans-Roman-6f"/>
    </defs>
    <g transform="translate(71.7844375 18.14175)scale(0.144 -0.144)">
     <use xlink:href="#BitstreamVeraSans-Roman-55"/>
     <use x="73.193359375" xlink:href="#BitstreamVeraSans-Roman-6e"/>
     <use x="136.572265625" xlink:href="#BitstreamVeraSans-Roman-69"/>
     <use x="164.35546875" xlink:href="#BitstreamVeraSans-Roman-71"/>
     <use x="227.83203125" xlink:href="#BitstreamVeraSans-Roman-75"/>
     <use x="291.2109375" xlink:href="#BitstreamVeraSans-Roman-65"/>
     <use x="352.734375" xlink:href="#BitstreamVeraSans-Roman-20"/>
     <use x="384.521484375" xlink:href="#BitstreamVeraSans-Roman-50"/>
     <use x="441.19921875" xlink:href="#BitstreamVeraSans-Roman-65"/>
     <use x="502.72265625" xlink:href="#BitstreamVeraSans-Roman-72"/>
     <use x="541.5859375" xlink:href="#BitstreamVeraSans-Roman-63"/>
     <use x="596.56640625" xlink:href="#BitstreamVeraSans-Roman-65"/>
     <use x="658.08984375" xlink:href="#BitstreamVeraSans-Roman-6e"/>
     <use x="721.46875" xlink:href="#BitstreamVeraSans-Roman-74"/>
     <use x="760.677734375" xlink:href="#BitstreamVeraSans-Roman-61"/>
     <use x="821.95703125" xlink:href="#BitstreamVeraSans-Roman-67"/>
     <use x="885.43359375" xlink:href="#BitstreamVeraSans-Roman-65"/>
     <use x="946.95703125" xlink:href="#BitstreamVeraSans-Roman-20"/>
     <use x="978.744140625" xlink:href="#BitstreamVeraSans-Roman-61"/>
     <use x="1040.0234375" xlink:href="#BitstreamVeraSans-Roman-6d"/>
     <use x="1137.435546875" xlink:href="#BitstreamVeraSans-Roman-6f"/>
     <use x="1198.6171875" xlink:href="#BitstreamVeraSans-Roman-6e"/>
     <use x="1261.99609375" xlink:href="#BitstreamVeraSans-Roman-67"/>
     <use x="1325.47265625" xlink:href="#BitstreamVeraSans-Roman-20"/>
     <use x="1357.259765625" xlink:href="#BitstreamVeraSans-Roman-42"/>
     <use x="1425.86328125" xlink:href="#BitstreamVeraSans-Roman-69"/>
     <use x="1453.646484375" xlink:href="#BitstreamVeraSans-Roman-67"/>
     <use x="1517.123046875" xlink:href="#BitstreamVeraSans-Roman-20"/>
     <use x="1548.91015625" xlink:href="#BitstreamVeraSans-Roman-54"/>
     <use x="1609.994140625" xlink:href="#BitstreamVeraSans-Roman-68"/>
     <use x="1673.373046875" xlink:href="#BitstreamVeraSans-Roman-72"/>
     <use x="1712.236328125" xlink:href="#BitstreamVeraSans-Roman-65"/>
     <use x="1773.759765625" xlink:href="#BitstreamVeraSans-Roman-65"/>
    </g>
   </g>
   <g id="legend_1">
    <g id="patch_7">
     <path d="
M250.063 85.583
L364.942 85.583
L364.942 29.1417
L250.063 29.1417
z
" style="fill:#e5e5e5;stroke:#ffffff;stroke-linejoin:miter;stroke-width:0.5;"/>
    </g>
    <g id="line2d_49">
     <path d="
M258.463 38.8599
L275.263 38.8599" style="fill:none;stroke:#e24a33;stroke-linecap:square;"/>
    </g>
    <g id="line2d_50"/>
    <g id="text_17">
     <!-- BONNAROO -->
     <defs>
      <path d="
M34.1875 63.1875
L20.7969 26.9062
L47.6094 26.9062
z

M28.6094 72.9062
L39.7969 72.9062
L67.5781 0
L57.3281 0
L50.6875 18.7031
L17.8281 18.7031
L11.1875 0
L0.78125 0
z
" id="BitstreamVeraSans-Roman-41"/>
      <path d="
M9.8125 72.9062
L23.0938 72.9062
L55.4219 11.9219
L55.4219 72.9062
L64.9844 72.9062
L64.9844 0
L51.7031 0
L19.3906 60.9844
L19.3906 0
L9.8125 0
z
" id="BitstreamVeraSans-Roman-4e"/>
      <path d="
M39.4062 66.2188
Q28.6562 66.2188 22.3281 58.2031
Q16.0156 50.2031 16.0156 36.375
Q16.0156 22.6094 22.3281 14.5938
Q28.6562 6.59375 39.4062 6.59375
Q50.1406 6.59375 56.4219 14.5938
Q62.7031 22.6094 62.7031 36.375
Q62.7031 50.2031 56.4219 58.2031
Q50.1406 66.2188 39.4062 66.2188
M39.4062 74.2188
Q54.7344 74.2188 63.9062 63.9375
Q73.0938 53.6562 73.0938 36.375
Q73.0938 19.1406 63.9062 8.85938
Q54.7344 -1.42188 39.4062 -1.42188
Q24.0312 -1.42188 14.8125 8.82812
Q5.60938 19.0938 5.60938 36.375
Q5.60938 53.6562 14.8125 63.9375
Q24.0312 74.2188 39.4062 74.2188" id="BitstreamVeraSans-Roman-4f"/>
      <path d="
M44.3906 34.1875
Q47.5625 33.1094 50.5625 29.5938
Q53.5625 26.0781 56.5938 19.9219
L66.6094 0
L56 0
L46.6875 18.7031
Q43.0625 26.0312 39.6719 28.4219
Q36.2812 30.8125 30.4219 30.8125
L19.6719 30.8125
L19.6719 0
L9.8125 0
L9.8125 72.9062
L32.0781 72.9062
Q44.5781 72.9062 50.7344 67.6719
Q56.8906 62.4531 56.8906 51.9062
Q56.8906 45.0156 53.6875 40.4688
Q50.4844 35.9375 44.3906 34.1875
M19.6719 64.7969
L19.6719 38.9219
L32.0781 38.9219
Q39.2031 38.9219 42.8438 42.2188
Q46.4844 45.5156 46.4844 51.9062
Q46.4844 58.2969 42.8438 61.5469
Q39.2031 64.7969 32.0781 64.7969
z
" id="BitstreamVeraSans-Roman-52"/>
     </defs>
     <g transform="translate(288.4628125 43.059875)scale(0.12 -0.12)">
      <use xlink:href="#BitstreamVeraSans-Roman-42"/>
      <use x="66.853515625" xlink:href="#BitstreamVeraSans-Roman-4f"/>
      <use x="145.564453125" xlink:href="#BitstreamVeraSans-Roman-4e"/>
      <use x="220.369140625" xlink:href="#BitstreamVeraSans-Roman-4e"/>
      <use x="295.173828125" xlink:href="#BitstreamVeraSans-Roman-41"/>
      <use x="363.58203125" xlink:href="#BitstreamVeraSans-Roman-52"/>
      <use x="433.064453125" xlink:href="#BitstreamVeraSans-Roman-4f"/>
      <use x="511.775390625" xlink:href="#BitstreamVeraSans-Roman-4f"/>
     </g>
    </g>
    <g id="line2d_51">
     <path d="
M258.463 56.4736
L275.263 56.4736" style="fill:none;stroke:#348abd;stroke-linecap:square;"/>
    </g>
    <g id="line2d_52"/>
    <g id="text_18">
     <!-- COACHELLA -->
     <defs>
      <path d="
M9.8125 72.9062
L55.9062 72.9062
L55.9062 64.5938
L19.6719 64.5938
L19.6719 43.0156
L54.3906 43.0156
L54.3906 34.7188
L19.6719 34.7188
L19.6719 8.29688
L56.7812 8.29688
L56.7812 0
L9.8125 0
z
" id="BitstreamVeraSans-Roman-45"/>
      <path d="
M64.4062 67.2812
L64.4062 56.8906
Q59.4219 61.5312 53.7812 63.8125
Q48.1406 66.1094 41.7969 66.1094
Q29.2969 66.1094 22.6562 58.4688
Q16.0156 50.8281 16.0156 36.375
Q16.0156 21.9688 22.6562 14.3281
Q29.2969 6.6875 41.7969 6.6875
Q48.1406 6.6875 53.7812 8.98438
Q59.4219 11.2812 64.4062 15.9219
L64.4062 5.60938
Q59.2344 2.09375 53.4375 0.328125
Q47.6562 -1.42188 41.2188 -1.42188
Q24.6562 -1.42188 15.125 8.70312
Q5.60938 18.8438 5.60938 36.375
Q5.60938 53.9531 15.125 64.0781
Q24.6562 74.2188 41.2188 74.2188
Q47.75 74.2188 53.5312 72.4844
Q59.3281 70.75 64.4062 67.2812" id="BitstreamVeraSans-Roman-43"/>
      <path d="
M9.8125 72.9062
L19.6719 72.9062
L19.6719 8.29688
L55.1719 8.29688
L55.1719 0
L9.8125 0
z
" id="BitstreamVeraSans-Roman-4c"/>
      <path d="
M9.8125 72.9062
L19.6719 72.9062
L19.6719 43.0156
L55.5156 43.0156
L55.5156 72.9062
L65.375 72.9062
L65.375 0
L55.5156 0
L55.5156 34.7188
L19.6719 34.7188
L19.6719 0
L9.8125 0
z
" id="BitstreamVeraSans-Roman-48"/>
     </defs>
     <g transform="translate(288.4628125 60.673625)scale(0.12 -0.12)">
      <use xlink:href="#BitstreamVeraSans-Roman-43"/>
      <use x="69.82421875" xlink:href="#BitstreamVeraSans-Roman-4f"/>
      <use x="146.78515625" xlink:href="#BitstreamVeraSans-Roman-41"/>
      <use x="213.443359375" xlink:href="#BitstreamVeraSans-Roman-43"/>
      <use x="283.267578125" xlink:href="#BitstreamVeraSans-Roman-48"/>
      <use x="358.462890625" xlink:href="#BitstreamVeraSans-Roman-45"/>
      <use x="421.646484375" xlink:href="#BitstreamVeraSans-Roman-4c"/>
      <use x="477.359375" xlink:href="#BitstreamVeraSans-Roman-4c"/>
      <use x="535.322265625" xlink:href="#BitstreamVeraSans-Roman-41"/>
     </g>
    </g>
    <g id="line2d_53">
     <path d="
M258.463 74.0874
L275.263 74.0874" style="fill:none;stroke:#988ed5;stroke-linecap:square;"/>
    </g>
    <g id="line2d_54"/>
    <g id="text_19">
     <!-- LOLLA -->
     <g transform="translate(288.4628125 78.287375)scale(0.12 -0.12)">
      <use xlink:href="#BitstreamVeraSans-Roman-4c"/>
      <use x="52.087890625" xlink:href="#BitstreamVeraSans-Roman-4f"/>
      <use x="130.798828125" xlink:href="#BitstreamVeraSans-Roman-4c"/>
      <use x="186.51171875" xlink:href="#BitstreamVeraSans-Roman-4c"/>
      <use x="244.474609375" xlink:href="#BitstreamVeraSans-Roman-41"/>
     </g>
    </g>
   </g>
  </g>
 </g>
 <defs>
  <clipPath id="pd3e6d354eb">
   <rect height="223.2" width="334.8" x="36.1421875" y="23.14175"/>
  </clipPath>
 </defs>
</svg>
